<svg width="115" height="55" viewBox="0 0 115 55" fill="none" xmlns="http://www.w3.org/2000/svg">
<g id="Logos &#38; Icons">
<g id="Deposit &#38; Withdrawals">
<g id="Icon=PayID, Colour=off, Theme=Default">
<path id="Vector" d="M70.2777 0.261101C66.099 1.20067 62.68 4.33968 61.2449 8.58909L60.675 10.2974V27.4872V44.677L61.2449 46.4067C62.3212 49.5671 64.5161 52.1722 67.4285 53.6456C70.1933 55.055 70.1299 55.055 88.6176 54.9696C103.644 54.9055 105.311 54.8628 106.261 54.5425C109.659 53.3467 112.318 51.0832 113.753 48.0937C115.062 45.4031 115.041 45.8942 114.977 26.932L114.914 9.65678L114.429 8.33285C113.078 4.68134 110.355 1.94806 106.768 0.624119L105.206 0.0475655L88.4277 0.00485611C74.6252 -0.0164986 71.4173 0.0262108 70.2777 0.261101ZM76.7146 13.6499C78.0653 14.7176 78.0864 16.4473 76.799 17.5577C75.2584 18.8603 72.8102 17.6858 72.8102 15.6359C72.8102 13.6927 75.2162 12.4541 76.7146 13.6499ZM92.6697 13.9062C96.0254 14.7603 98.8745 16.49 100.478 18.6681C101.259 19.7144 101.935 20.9102 101.935 21.2519C101.935 21.4227 99.1911 22.6613 99.1067 22.5331C99.0645 22.4904 98.8112 22.0206 98.4946 21.4654C96.9751 18.7962 93.3873 16.9384 89.1242 16.6608L87.1614 16.5327V24.7753V33.0392H85.473H83.7847L83.8269 23.2592L83.8902 13.5005L84.8399 13.351C86.6549 13.0947 90.5593 13.351 92.6697 13.9062ZM76.8201 31.032V39.061L83.5314 38.9756C89.5251 38.8902 90.3904 38.8261 91.8256 38.4204C95.35 37.4595 97.6082 35.7725 98.8745 33.1887C99.2755 32.3772 99.6132 31.4804 99.6132 31.2028C99.6132 30.7116 99.5288 30.6903 98.3469 30.6903C97.6504 30.6903 97.0806 30.6476 97.0806 30.5835C97.0806 30.4768 100.879 25.5227 101.407 24.9461C101.639 24.7112 102.082 25.181 104.024 27.6153L106.367 30.5835L104.721 30.6476L103.074 30.7116L102.716 32.1424C101.47 36.9256 98.0092 40.1927 92.6908 41.5594C90.0317 42.2641 87.5624 42.4349 80.2602 42.4349H73.4434V32.7189V23.0029H75.1318H76.8201V31.032Z" fill="#D1D5DA"/>
<path id="Vector_2" d="M0 28.3498V41.8027H2.42704H4.85408V36.2507V30.6988H7.76652C13.5281 30.6774 16.4405 29.4175 17.9812 26.2785C18.5932 24.9973 18.6565 24.6983 18.6565 22.926C18.6565 20.5984 18.3611 19.488 17.4536 18.2922C15.3431 15.4948 13.0638 14.8969 4.70634 14.8969H0V28.3498ZM11.8608 19.7656C13.1693 20.4062 13.718 21.3244 13.718 22.7978C13.718 25.5098 11.6287 26.6202 6.50024 26.6415H4.85408V22.8833V19.125L7.87204 19.2104C10.4679 19.2745 10.9955 19.3385 11.8608 19.7656Z" fill="#D1D5DA"/>
<path id="Vector_3" d="M24.843 23.3165C23.3657 23.7009 21.5718 24.555 20.6431 25.3451L19.9678 25.9217L21.1919 27.3524C21.8672 28.1211 22.5004 28.7617 22.5848 28.7617C22.6692 28.7617 22.8591 28.6122 23.028 28.4201C23.429 27.9289 25.1384 27.0961 26.2992 26.8399C28.5996 26.306 31.2377 27.694 31.2377 29.445V30.1924L28.7262 30.3419C24.4842 30.5768 21.6351 31.5591 20.1788 33.2674C19.3136 34.3137 19.1236 35.0184 19.2502 37.0897C19.3136 38.3069 19.4402 38.734 19.9678 39.4813C21.6984 41.9797 25.9193 42.8979 29.085 41.4459C29.7182 41.1683 30.499 40.6344 30.8367 40.2714L31.4487 39.6095V40.6985V41.7875H33.5803H35.6908L35.6275 34.8903C35.5642 28.2279 35.5431 27.9716 35.0787 26.9466C34.4245 25.4946 33.3271 24.4269 31.7864 23.7222C30.689 23.2311 30.1614 23.1243 28.283 23.0603C26.8479 23.0175 25.645 23.1243 24.843 23.3165ZM31.2377 34.4205C31.2377 36.4064 29.9292 37.9652 27.9454 38.3709C25.7083 38.8407 23.8511 37.9652 23.8511 36.4491C23.8511 34.5913 25.9404 33.5663 29.9292 33.4809L31.2377 33.4596V34.4205Z" fill="#D1D5DA"/>
<path id="Vector_4" d="M37.0101 23.906C37.0734 24.1836 38.7407 28.1982 40.7245 32.8106C42.6872 37.4444 44.3123 41.4162 44.3123 41.6511C44.3123 42.3771 42.9827 45.3026 42.3707 45.9432C41.8008 46.5197 41.6742 46.5411 40.3024 46.4557L38.8251 46.3703L38.7195 47.0322C38.6773 47.3739 38.5718 48.3135 38.5085 49.1035L38.3819 50.5129L39.7537 50.6624C43.2359 51.0467 45.5997 49.8509 47.0137 47.0322C47.3092 46.413 53.3662 30.846 56.0676 23.7352C56.1731 23.4576 55.8354 23.4363 53.7039 23.479L51.2135 23.543L49.0608 29.9492C47.1825 35.5012 46.866 36.2913 46.676 35.8215C46.5705 35.5225 45.5997 33.0028 44.5444 30.2054C43.4681 27.4081 42.4551 24.7388 42.2862 24.2691L41.9486 23.4363H39.416C36.8834 23.4363 36.8834 23.4363 37.0101 23.906Z" fill="#D1D5DA"/>
</g>
</g>
</g>
</svg>
