<svg xmlns="http://www.w3.org/2000/svg" width="24" height="24" viewBox="0 0 24 24" fill="none">
  <defs><clipPath id="usClip"><circle cx="12" cy="12" r="12"/></clipPath></defs>
  <g clip-path="url(#usClip)">
    <rect width="24" height="24" fill="#BF0A30"/>
    <rect y="2" width="24" height="2" fill="#fff"/>
    <rect y="6" width="24" height="2" fill="#fff"/>
    <rect y="10" width="24" height="2" fill="#fff"/>
    <rect y="14" width="24" height="2" fill="#fff"/>
    <rect y="18" width="24" height="2" fill="#fff"/>
    <rect y="22" width="24" height="2" fill="#fff"/>
    <rect width="12" height="12" fill="#002868"/>
    <circle cx="2.4" cy="2.4" r="0.45" fill="#fff"/>
    <circle cx="4.8" cy="2.4" r="0.45" fill="#fff"/>
    <circle cx="7.2" cy="2.4" r="0.45" fill="#fff"/>
    <circle cx="9.6" cy="2.4" r="0.45" fill="#fff"/>
    <circle cx="3.6" cy="4.4" r="0.45" fill="#fff"/>
    <circle cx="6" cy="4.4" r="0.45" fill="#fff"/>
    <circle cx="8.4" cy="4.4" r="0.45" fill="#fff"/>
    <circle cx="2.4" cy="6.4" r="0.45" fill="#fff"/>
    <circle cx="4.8" cy="6.4" r="0.45" fill="#fff"/>
    <circle cx="7.2" cy="6.4" r="0.45" fill="#fff"/>
    <circle cx="9.6" cy="6.4" r="0.45" fill="#fff"/>
    <circle cx="3.6" cy="8.4" r="0.45" fill="#fff"/>
    <circle cx="6" cy="8.4" r="0.45" fill="#fff"/>
    <circle cx="8.4" cy="8.4" r="0.45" fill="#fff"/>
    <circle cx="2.4" cy="10.4" r="0.45" fill="#fff"/>
    <circle cx="4.8" cy="10.4" r="0.45" fill="#fff"/>
    <circle cx="7.2" cy="10.4" r="0.45" fill="#fff"/>
    <circle cx="9.6" cy="10.4" r="0.45" fill="#fff"/>
  </g>
</svg>
